<svg xmlns="http://www.w3.org/2000/svg" viewBox="0 0 400 520" width="400" height="520" role="img" aria-label="D-04, page 68">
<rect width="400" height="520" fill="#f7f5ee"/>
<text x="34" y="36" font-family="ui-monospace, Menlo, monospace" font-size="7" letter-spacing="1" fill="#6c6c76">CARVANA CO. · 8-K · SENIOR SECURED NOTES INDENTURE · PAGE 68</text>
<text x="34" y="50" font-family="ui-monospace, Menlo, monospace" font-size="6" fill="#8a8a8a">ARTICLE 1 — DEFINITIONS (CONTINUED)</text>
<rect x="34" y="64" width="332" height="5" rx="1" fill="#c9c5b8"/><rect x="34" y="78" width="332" height="5" rx="1" fill="#d8d5c9"/><rect x="34" y="92" width="332" height="5" rx="1" fill="#c9c5b8"/><rect x="34" y="106" width="332" height="5" rx="1" fill="#d8d5c9"/><rect x="34" y="120" width="332" height="5" rx="1" fill="#c9c5b8"/><rect x="34" y="134" width="332" height="5" rx="1" fill="#d8d5c9"/><rect x="34" y="148" width="190" height="5" rx="1" fill="#c9c5b8"/><rect x="34" y="172" width="332" height="5" rx="1" fill="#d8d5c9"/><rect x="34" y="186" width="332" height="5" rx="1" fill="#c9c5b8"/><rect x="34" y="200" width="332" height="5" rx="1" fill="#d8d5c9"/><rect x="34" y="214" width="332" height="5" rx="1" fill="#c9c5b8"/><rect x="34" y="228" width="332" height="5" rx="1" fill="#d8d5c9"/><rect x="34" y="242" width="332" height="5" rx="1" fill="#c9c5b8"/><rect x="34" y="256" width="332" height="5" rx="1" fill="#d8d5c9"/><rect x="34" y="270" width="332" height="5" rx="1" fill="#c9c5b8"/><rect x="34" y="284" width="190" height="5" rx="1" fill="#d8d5c9"/><rect x="34" y="308" width="332" height="5" rx="1" fill="#c9c5b8"/><rect x="34" y="322" width="332" height="5" rx="1" fill="#d8d5c9"/><rect x="34" y="336" width="332" height="5" rx="1" fill="#c9c5b8"/><rect x="34" y="350" width="332" height="5" rx="1" fill="#d8d5c9"/><rect x="34" y="364" width="332" height="5" rx="1" fill="#c9c5b8"/><rect x="34" y="378" width="332" height="5" rx="1" fill="#d8d5c9"/><rect x="34" y="392" width="332" height="5" rx="1" fill="#c9c5b8"/><rect x="34" y="406" width="190" height="5" rx="1" fill="#d8d5c9"/><rect x="34" y="430" width="332" height="5" rx="1" fill="#c9c5b8"/><rect x="34" y="444" width="332" height="5" rx="1" fill="#d8d5c9"/><rect x="34" y="458" width="332" height="5" rx="1" fill="#c9c5b8"/><rect x="34" y="472" width="332" height="5" rx="1" fill="#d8d5c9"/><rect x="34" y="486" width="332" height="5" rx="1" fill="#c9c5b8"/><rect x="34" y="500" width="332" height="5" rx="1" fill="#d8d5c9"/>
<text x="34" y="500" font-family="ui-monospace, Menlo, monospace" font-size="6" fill="#8a8a8a">68</text>
</svg>
